<?xml version="1.0" encoding="UTF-8" standalone="no"?>
<svg
   xmlns:dc="http://purl.org/dc/elements/1.1/"
   xmlns:cc="http://creativecommons.org/ns#"
   xmlns:rdf="http://www.w3.org/1999/02/22-rdf-syntax-ns#"
   xmlns:svg="http://www.w3.org/2000/svg"
   xmlns="http://www.w3.org/2000/svg"
   xmlns:sodipodi="http://sodipodi.sourceforge.net/DTD/sodipodi-0.dtd"
   xmlns:inkscape="http://www.inkscape.org/namespaces/inkscape"
   inkscape:version="1.0 (4035a4f, 2020-05-01)"
   sodipodi:docname="Search Flow Diagram.svg"
   viewBox="0 0 720 1040"
   height="1040"
   width="720"
   xml:space="preserve"
   id="svg833"
   version="1.1"><metadata
     id="metadata839"><rdf:RDF><cc:Work
         rdf:about=""><dc:format>image/svg+xml</dc:format><dc:type
           rdf:resource="http://purl.org/dc/dcmitype/StillImage" /><dc:title></dc:title></cc:Work></rdf:RDF></metadata><defs
     id="defs837"><clipPath
       id="clipPath851"
       clipPathUnits="userSpaceOnUse"><path
         id="path849"
         d="M 0,0.2400174 H 540 V 780.00002 H 0 Z" /></clipPath></defs><sodipodi:namedview
     inkscape:current-layer="g841"
     inkscape:cy="564.21831"
     inkscape:cx="413.44781"
     inkscape:zoom="1.3155765"
     showgrid="false"
     id="namedview835"
     inkscape:window-height="480"
     inkscape:window-width="640"
     inkscape:pageshadow="2"
     inkscape:pageopacity="0"
     guidetolerance="10"
     gridtolerance="10"
     objecttolerance="10"
     borderopacity="1"
     bordercolor="#666666"
     pagecolor="#ffffff" /><g
     transform="matrix(1.3333333,0,0,-1.3333333,0,1040)"
     inkscape:label="Search Flow Diagram"
     inkscape:groupmode="layer"
     id="g841"><g
       id="g843" /><path
       d="m 84,602.125 h 175.5 v -53.75 H 84 Z"
       style="fill:#ffffff;fill-opacity:1;fill-rule:nonzero;stroke:none"
       id="path859" /><g
       id="g861"
       transform="matrix(7.874016e-5,0,0,-7.874016e-5,84,602.125)"><path
         d="M 0,0 H 2228850 V 682625 H 0 Z"
         style="fill:none;stroke:#000000;stroke-width:9525;stroke-linecap:butt;stroke-linejoin:miter;stroke-miterlimit:8;stroke-dasharray:none;stroke-opacity:1"
         id="path863" /></g><g
       id="g865"
       transform="matrix(0.24,0,0,0.24,112.1875,-194.88)"><text
         transform="matrix(1,0,0,-1,0,3249)"
         style="font-variant:normal;font-weight:normal;font-size:45.8333px;font-family:Calibri;-inkscape-font-specification:Calibri;writing-mode:lr-tb;fill:#000000;fill-opacity:1;fill-rule:nonzero;stroke:none"
         id="text869"><tspan
           x="0 25.002081 47.895828 67.168747 91.116661 107.27291 131.22083 148.93541 159.36249 169.78957 193.73749 216.63124 240.57915 255.68123 266.10831 280.15622 290.58331 313.47705 337.42499 347.85205 362.95413 386.90207 403.05832 427.00623 450.95413 472.28955 496.23746"
           y="0"
           sodipodi:role="line"
           id="tspan867">Records identified through </tspan></text></g><g
       id="g871"
       transform="matrix(0.24,0,0,0.24,128.8775,-207.84)"><text
         transform="matrix(1,0,0,-1,0,3249)"
         style="font-variant:normal;font-weight:normal;font-size:45.8333px;font-family:Calibri;-inkscape-font-specification:Calibri;writing-mode:lr-tb;fill:#000000;fill-opacity:1;fill-rule:nonzero;stroke:none"
         id="text875"><tspan
           x="0 23.957081 45.851662 60.962914 82.857491 106.81458 128.70915 146.43291 169.33582 179.77206 197.49582 220.39873 242.29332 258.45874 277.74081 301.69791 312.13416 336.09122"
           y="0"
           sodipodi:role="line"
           id="tspan873">database searching</tspan></text></g><g
       id="g877"
       transform="matrix(0.24,0,0,0.24,134.5025,-221.76)"><text
         transform="matrix(1,0,0,-1,0,3249)"
         style="font-variant:normal;font-weight:normal;font-size:45.8333px;font-family:Calibri;-inkscape-font-specification:Calibri;writing-mode:lr-tb;fill:#000000;fill-opacity:1;fill-rule:nonzero;stroke:none"
         id="text881"><tspan
           x="0 23.439165 47.382496 71.325829 110.39416 133.32916 157.27249 167.69499 181.73833 205.68166 216.10416 239.03915 249.46165 272.90082 296.33997"
           y="0"
           sodipodi:role="line"
           id="tspan879">PubMed (n = 90)</tspan></text></g><path
       d="M 24.89587,386 C 22.74424,386 21,387.7443 21,389.8959 V 490.1041 C 21,492.2558 22.74424,494 24.89587,494 h 15.58322 c 2.15163,0 3.89587,-1.7442 3.89587,-3.8959 V 389.8959 c 0,-2.1516 -1.74424,-3.8959 -3.89587,-3.8959 z"
       style="fill:#ccecff;fill-opacity:1;fill-rule:nonzero;stroke:none"
       id="path883" /><g
       id="g885"
       transform="matrix(0,7.874016e-5,7.874016e-5,0,21,386)"><path
         d="M 0,49477.5 C 0,22151.83 22151.83,0 49477.5,0 H 1322122 c 27326,0 49478,22151.83 49478,49477.5 v 197907 c 0,27325.7 -22152,49477.5 -49478,49477.5 H 49477.5 C 22151.83,296862 0,274710.2 0,247384.5 Z"
         style="fill:none;stroke:#000000;stroke-width:9525;stroke-linecap:butt;stroke-linejoin:round;stroke-miterlimit:10;stroke-dasharray:none;stroke-opacity:1"
         id="path887" /></g><g
       id="g889"
       transform="matrix(0,0.24,-0.24,0,816.5011,415.68)"><text
         transform="matrix(1,0,0,-1,0,3249)"
         style="font-variant:normal;font-weight:bold;font-size:50px;font-family:Calibri;-inkscape-font-specification:Calibri-Bold;writing-mode:lr-tb;fill:#000000;fill-opacity:1;fill-rule:nonzero;stroke:none"
         id="text893"><tspan
           x="0 23.434999 44.27 61.404999 86.389999 111.375 138.46001 150.94501 178.03"
           y="0"
           sodipodi:role="line"
           id="tspan891">Screening</tspan></text></g><path
       d="M 24.89587,134 C 22.74424,134 21,135.7442 21,137.8959 V 238.1041 C 21,240.2558 22.74424,242 24.89587,242 h 15.58322 c 2.15163,0 3.89587,-1.7442 3.89587,-3.8959 V 137.8959 c 0,-2.1517 -1.74424,-3.8959 -3.89587,-3.8959 z"
       style="fill:#ccecff;fill-opacity:1;fill-rule:nonzero;stroke:none"
       id="path895" /><g
       id="g897"
       transform="matrix(0,7.874016e-5,7.874016e-5,0,21,134)"><path
         d="M 0,49477.5 C 0,22151.83 22151.83,0 49477.5,0 H 1322122 c 27326,0 49478,22151.83 49478,49477.5 v 197907 c 0,27325.7 -22152,49477.5 -49478,49477.5 H 49477.5 C 22151.83,296862 0,274710.2 0,247384.5 Z"
         style="fill:none;stroke:#000000;stroke-width:9525;stroke-linecap:butt;stroke-linejoin:round;stroke-miterlimit:10;stroke-dasharray:none;stroke-opacity:1"
         id="path899" /></g><g
       id="g901"
       transform="matrix(0,0.24,-0.24,0,816.5011,166.32)"><text
         transform="matrix(1,0,0,-1,0,3249)"
         style="font-variant:normal;font-weight:bold;font-size:50px;font-family:Calibri;-inkscape-font-specification:Calibri-Bold;writing-mode:lr-tb;fill:#000000;fill-opacity:1;fill-rule:nonzero;stroke:none"
         id="text905"><tspan
           x="0 13.54 40.630001 61.470001 73.959999 101.05 128.14 153.13"
           y="0"
           sodipodi:role="line"
           id="tspan903">Included</tspan></text></g><path
       d="M 24.89587,260 C 22.74424,260 21,261.7442 21,263.8959 V 364.1041 C 21,366.2558 22.74424,368 24.89587,368 h 15.58322 c 2.15163,0 3.89587,-1.7442 3.89587,-3.8959 V 263.8959 c 0,-2.1517 -1.74424,-3.8959 -3.89587,-3.8959 z"
       style="fill:#ccecff;fill-opacity:1;fill-rule:nonzero;stroke:none"
       id="path907" /><g
       id="g909"
       transform="matrix(0,7.874016e-5,7.874016e-5,0,21,260)"><path
         d="M 0,49477.5 C 0,22151.83 22151.83,0 49477.5,0 H 1322122 c 27326,0 49478,22151.83 49478,49477.5 v 197907 c 0,27325.7 -22152,49477.5 -49478,49477.5 H 49477.5 C 22151.83,296862 0,274710.2 0,247384.5 Z"
         style="fill:none;stroke:#000000;stroke-width:9525;stroke-linecap:butt;stroke-linejoin:round;stroke-miterlimit:10;stroke-dasharray:none;stroke-opacity:1"
         id="path911" /></g><g
       id="g913"
       transform="matrix(0,0.24,-0.24,0,815.5011,293.04)"><text
         transform="matrix(1,0,0,-1,0,3249)"
         style="font-variant:normal;font-weight:bold;font-size:45.8333px;font-family:Calibri;-inkscape-font-specification:Calibri-Bold;writing-mode:lr-tb;fill:#000000;fill-opacity:1;fill-rule:nonzero;stroke:none"
         id="text917"><tspan
           x="0 22.394165 33.834164 45.274162 67.164162 78.604164 103.06083 114.50082 125.94083 137.38083 153.54166"
           y="0"
           sodipodi:role="line"
           id="tspan915">Eligibility</tspan></text></g><path
       d="m 183.375,548.125 1e-4,-31 h -0.75 l -1e-4,31 z m 2.6251,-30 -3,-6 -3,6 z"
       style="fill:#000000;fill-opacity:1;fill-rule:nonzero;stroke:none"
       id="path919" /><path
       d="m 363.375,548.125 10e-5,-31 h -0.75 l -10e-5,31 z m 2.6251,-30 -3,-6 -3,6 z"
       style="fill:#000000;fill-opacity:1;fill-rule:nonzero;stroke:none"
       id="path921" /><path
       d="M 24.89587,512 C 22.74424,512 21,513.7443 21,515.8959 V 616.1041 C 21,618.2558 22.74424,620 24.89587,620 h 15.58322 c 2.15163,0 3.89587,-1.7442 3.89587,-3.8959 V 515.8959 c 0,-2.1516 -1.74424,-3.8959 -3.89587,-3.8959 z"
       style="fill:#ccecff;fill-opacity:1;fill-rule:nonzero;stroke:none"
       id="path923" /><g
       id="g925"
       transform="matrix(0,7.874016e-5,7.874016e-5,0,21,512)"><path
         d="M 0,49477.5 C 0,22151.83 22151.83,0 49477.5,0 H 1322122 c 27326,0 49478,22151.83 49478,49477.5 v 197907 c 0,27325.7 -22152,49477.5 -49478,49477.5 H 49477.5 C 22151.83,296862 0,274710.2 0,247384.5 Z"
         style="fill:none;stroke:#000000;stroke-width:9525;stroke-linecap:butt;stroke-linejoin:round;stroke-miterlimit:10;stroke-dasharray:none;stroke-opacity:1"
         id="path927" /></g><g
       id="g929"
       transform="matrix(0,0.24,-0.24,0,816.5011,532.56)"><text
         transform="matrix(1,0,0,-1,0,3249)"
         style="font-variant:normal;font-weight:bold;font-size:50px;font-family:Calibri;-inkscape-font-specification:Calibri-Bold;writing-mode:lr-tb;fill:#000000;fill-opacity:1;fill-rule:nonzero;stroke:none"
         id="text933"><tspan
           x="0 13.54 40.630001 65.620003 92.260002 109.45 121.94 137.58 150.07001 170.61 194.64999 211.84 224.33 251.42"
           y="0"
           sodipodi:role="line"
           id="tspan931">Identification</tspan></text></g><path
       d="m 283.75,602.125 h 175.5 v -54 h -175.5 z"
       style="fill:#ffffff;fill-opacity:1;fill-rule:nonzero;stroke:none"
       id="path935" /><g
       id="g937"
       transform="matrix(7.874016e-5,0,0,-7.874016e-5,283.75,602.125)"><path
         d="M 0,0 H 2228850 V 685800 H 0 Z"
         style="fill:none;stroke:#000000;stroke-width:9525;stroke-linecap:butt;stroke-linejoin:miter;stroke-miterlimit:8;stroke-dasharray:none;stroke-opacity:1"
         id="path939" /></g><g
       id="g941"
       transform="matrix(0.24,0,0,0.24,307.9375,-194.88)"><text
         transform="matrix(1,0,0,-1,0,3249)"
         style="font-variant:normal;font-weight:normal;font-size:45.8333px;font-family:Calibri;-inkscape-font-specification:Calibri;writing-mode:lr-tb;fill:#000000;fill-opacity:1;fill-rule:nonzero;stroke:none"
         id="text945"><tspan
           x="0 26.560415 50.508331 74.456245 84.883324 99.985413 110.41249 134.36041 158.30832 180.19374 190.62082 201.0479 217.20415 240.14374 259.41666 283.36456 299.52081 323.46872 341.18332 351.61038 362.03748 385.98538 408.92496 432.87289 447.97498 458.40204 472.44995 482.87704 505.81662 529.76453"
           y="0"
           sodipodi:role="line"
           id="tspan943">Additional records identified </tspan></text></g><g
       id="g947"
       transform="matrix(0.24,0,0,0.24,321.9375,-207.84)"><text
         transform="matrix(1,0,0,-1,0,3249)"
         style="font-variant:normal;font-weight:normal;font-size:45.8333px;font-family:Calibri;-inkscape-font-specification:Calibri;writing-mode:lr-tb;fill:#000000;fill-opacity:1;fill-rule:nonzero;stroke:none"
         id="text951"><tspan
           x="0 15.102082 39.049995 55.206245 79.15416 103.10207 124.43749 148.38541 158.81248 182.76041 197.86249 221.81039 244.74998 260.90622 271.33331 289.04788 312.99582 336.94373 353.09998 372.37289 395.31247"
           y="0"
           sodipodi:role="line"
           id="tspan949">through other sources</tspan></text></g><g
       id="g953"
       transform="matrix(0.24,0,0,0.24,357.1875,-221.76)"><text
         transform="matrix(1,0,0,-1,0,3249)"
         style="font-variant:normal;font-weight:normal;font-size:45.8333px;font-family:Calibri;-inkscape-font-specification:Calibri;writing-mode:lr-tb;fill:#000000;fill-opacity:1;fill-rule:nonzero;stroke:none"
         id="text957"><tspan
           x="0 14.061666 38.023331 48.418331 71.325829 81.720825 105.17833"
           y="0"
           sodipodi:role="line"
           id="tspan955">(n = 2)</tspan></text></g><path
       d="m 163.875,512.125 h 218.25 v -45 h -218.25 z"
       style="fill:#ffffff;fill-opacity:1;fill-rule:nonzero;stroke:none"
       id="path959" /><g
       id="g961"
       transform="matrix(7.874016e-5,0,0,-7.874016e-5,163.875,512.125)"><path
         d="M 0,0 H 2771775 V 571500 H 0 Z"
         style="fill:none;stroke:#000000;stroke-width:9525;stroke-linecap:butt;stroke-linejoin:miter;stroke-miterlimit:8;stroke-dasharray:none;stroke-opacity:1"
         id="path963" /></g><g
       id="g965"
       transform="matrix(0.24,0,0,0.24,197.75,-284.88)"><text
         transform="matrix(1,0,0,-1,0,3249)"
         style="font-variant:normal;font-weight:normal;font-size:45.8333px;font-family:Calibri;-inkscape-font-specification:Calibri;writing-mode:lr-tb;fill:#000000;fill-opacity:1;fill-rule:nonzero;stroke:none"
         id="text969"><tspan
           x="0 25.002081 47.895828 67.168747 91.116661 107.27291 131.22083 148.93541 159.36249 181.24791 195.29582 210.3979 233.29166 249.44789 259.87497 283.82291 307.77081 331.71872 342.14581 352.57288 371.84579 393.73123 408.83331 431.72705 449.44162 459.86871 476.02496 498.9187 535.37915 559.32703 580.15826 603.05206"
           y="0"
           sodipodi:role="line"
           id="tspan967">Records after duplicates removed</tspan></text></g><g
       id="g971"
       transform="matrix(0.24,0,0,0.24,255.875,-298.8)"><text
         transform="matrix(1,0,0,-1,0,3249)"
         style="font-variant:normal;font-weight:normal;font-size:45.8333px;font-family:Calibri;-inkscape-font-specification:Calibri;writing-mode:lr-tb;fill:#000000;fill-opacity:1;fill-rule:nonzero;stroke:none"
         id="text975"><tspan
           x="0 14.061666 38.023331 48.418331 71.325829 81.720825 105.17833 128.63582"
           y="0"
           sodipodi:role="line"
           id="tspan973">(n = 92)</tspan></text></g><path
       d="m 208.125,431.125 h 131.4999 v -45 H 208.125 Z"
       style="fill:#ffffff;fill-opacity:1;fill-rule:nonzero;stroke:none"
       id="path977" /><g
       id="g979"
       transform="matrix(7.874016e-5,0,0,-7.874016e-5,208.125,431.125)"><path
         d="M 0,0 H 1670050 V 571500 H 0 Z"
         style="fill:none;stroke:#000000;stroke-width:9525;stroke-linecap:butt;stroke-linejoin:miter;stroke-miterlimit:8;stroke-dasharray:none;stroke-opacity:1"
         id="path981" /></g><g
       id="g983"
       transform="matrix(0.24,0,0,0.24,234.375,-365.76)"><text
         transform="matrix(1,0,0,-1,0,3249)"
         style="font-variant:normal;font-weight:normal;font-size:45.8333px;font-family:Calibri;-inkscape-font-specification:Calibri;writing-mode:lr-tb;fill:#000000;fill-opacity:1;fill-rule:nonzero;stroke:none"
         id="text987"><tspan
           x="0 25.002081 47.895828 67.168747 91.116661 107.27291 131.22083 148.93541 159.36249 177.07707 196.34999 212.50624 235.39998 258.29373 282.24164 305.13541"
           y="0"
           sodipodi:role="line"
           id="tspan985">Records screened</tspan></text></g><g
       id="g989"
       transform="matrix(0.24,0,0,0.24,255.4999,-379.92)"><text
         transform="matrix(1,0,0,-1,0,3249)"
         style="font-variant:normal;font-weight:normal;font-size:45.8333px;font-family:Calibri;-inkscape-font-specification:Calibri;writing-mode:lr-tb;fill:#000000;fill-opacity:1;fill-rule:nonzero;stroke:none"
         id="text993"><tspan
           x="0 14.061666 38.023331 48.418331 71.325829 92.115829 115.57333 139.03082"
           y="0"
           sodipodi:role="line"
           id="tspan991">(n = 92)</tspan></text></g><path
       d="m 390,431.125 h 135 v -45 H 390 Z"
       style="fill:#ffffff;fill-opacity:1;fill-rule:nonzero;stroke:none"
       id="path995" /><g
       id="g997"
       transform="matrix(7.874016e-5,0,0,-7.874016e-5,390,431.125)"><path
         d="M 0,0 H 1714500 V 571500 H 0 Z"
         style="fill:none;stroke:#000000;stroke-width:9525;stroke-linecap:butt;stroke-linejoin:miter;stroke-miterlimit:8;stroke-dasharray:none;stroke-opacity:1"
         id="path999" /></g><g
       id="g1001"
       transform="matrix(0.24,0,0,0.24,418.3125,-365.76)"><text
         transform="matrix(1,0,0,-1,0,3249)"
         style="font-variant:normal;font-weight:normal;font-size:45.8333px;font-family:Calibri;-inkscape-font-specification:Calibri;writing-mode:lr-tb;fill:#000000;fill-opacity:1;fill-rule:nonzero;stroke:none"
         id="text1005"><tspan
           x="0 25.002081 47.895828 67.168747 91.116661 107.27291 131.22083 148.93541 159.36249 182.25624 202.03333 221.30623 231.73332 255.68123 279.62915 302.52289"
           y="0"
           sodipodi:role="line"
           id="tspan1003">Records excluded</tspan></text></g><g
       id="g1007"
       transform="matrix(0.24,0,0,0.24,443.1875,-379.92)"><text
         transform="matrix(1,0,0,-1,0,3249)"
         style="font-variant:normal;font-weight:normal;font-size:45.8333px;font-family:Calibri;-inkscape-font-specification:Calibri;writing-mode:lr-tb;fill:#000000;fill-opacity:1;fill-rule:nonzero;stroke:none"
         id="text1011"><tspan
           x="0 14.061666 38.023331 48.418331 71.325829 81.720825 105.17833"
           y="0"
           sodipodi:role="line"
           id="tspan1009">(n = 0)</tspan></text></g><path
       d="m 206.375,359.125 h 135 v -54 h -135 z"
       style="fill:#ffffff;fill-opacity:1;fill-rule:nonzero;stroke:none"
       id="path1013" /><g
       id="g1015"
       transform="matrix(7.874016e-5,0,0,-7.874016e-5,206.375,359.125)"><path
         d="M 0,0 H 1714500 V 685800 H 0 Z"
         style="fill:none;stroke:#000000;stroke-width:9525;stroke-linecap:butt;stroke-linejoin:miter;stroke-miterlimit:8;stroke-dasharray:none;stroke-opacity:1"
         id="path1017" /></g><g
       id="g1019"
       transform="matrix(0.24,0,0,0.24,217.4999,-437.76)"><text
         transform="matrix(1,0,0,-1,0,3249)"
         style="font-variant:normal;font-weight:normal;font-size:45.8333px;font-family:Calibri;-inkscape-font-specification:Calibri;writing-mode:lr-tb;fill:#000000;fill-opacity:1;fill-rule:nonzero;stroke:none"
         id="text1023"><tspan
           x="0 20.831249 44.779163 55.206245"
           y="0"
           sodipodi:role="line"
           id="tspan1021">Full</tspan></text></g><g
       id="g1025"
       transform="matrix(0.24,0,0,0.24,233.2499,-437.76)"><text
         transform="matrix(1,0,0,-1,0,3249)"
         style="font-variant:normal;font-weight:normal;font-size:45.8333px;font-family:Calibri;-inkscape-font-specification:Calibri;writing-mode:lr-tb;fill:#000000;fill-opacity:1;fill-rule:nonzero;stroke:none"
         id="text1029"><tspan
           x="0"
           y="0"
           id="tspan1027">-</tspan></text></g><g
       id="g1031"
       transform="matrix(0.24,0,0,0.24,236.6249,-437.76)"><text
         transform="matrix(1,0,0,-1,0,3249)"
         style="font-variant:normal;font-weight:normal;font-size:45.8333px;font-family:Calibri;-inkscape-font-specification:Calibri;writing-mode:lr-tb;fill:#000000;fill-opacity:1;fill-rule:nonzero;stroke:none"
         id="text1035"><tspan
           x="0 15.102082 38.041664 57.818745 72.92083 83.347908 105.23332 121.38957 136.49165 146.91875 166.19165 176.61874 199.55832 217.2729 227.69998 249.5854 267.29999 285.01456 307.95413 325.66873 343.3833 366.32288 390.27081"
           y="0"
           sodipodi:role="line"
           id="tspan1033">text articles assessed </tspan></text></g><g
       id="g1037"
       transform="matrix(0.24,0,0,0.24,229.3099,-450.72)"><text
         transform="matrix(1,0,0,-1,0,3249)"
         style="font-variant:normal;font-weight:normal;font-size:45.8333px;font-family:Calibri;-inkscape-font-specification:Calibri;writing-mode:lr-tb;fill:#000000;fill-opacity:1;fill-rule:nonzero;stroke:none"
         id="text1041"><tspan
           x="0 14.061666 38.023331 54.147495 64.542496 74.937492 98.899162 118.18582 128.58083 152.5425 170.27083 180.66582 204.62749 228.58916 238.98415 258.27081 274.39499 284.78998 299.90582 322.81332 338.93747 349.33249"
           y="0"
           sodipodi:role="line"
           id="tspan1039">for inclusion criteria</tspan></text></g><g
       id="g1043"
       transform="matrix(0.24,0,0,0.24,256.7499,-464.88)"><text
         transform="matrix(1,0,0,-1,0,3249)"
         style="font-variant:normal;font-weight:normal;font-size:45.8333px;font-family:Calibri;-inkscape-font-specification:Calibri;writing-mode:lr-tb;fill:#000000;fill-opacity:1;fill-rule:nonzero;stroke:none"
         id="text1047"><tspan
           x="0 14.061666 38.023331 48.418331 71.325829 81.720825 105.17833 128.63582"
           y="0"
           sodipodi:role="line"
           id="tspan1045">(n = 92)</tspan></text></g><path
       d="m 390,359.125 h 135 v -54 H 390 Z"
       style="fill:#ffffff;fill-opacity:1;fill-rule:nonzero;stroke:none"
       id="path1049" /><g
       id="g1051"
       transform="matrix(7.874016e-5,0,0,-7.874016e-5,390,359.125)"><path
         d="M 0,0 H 1714500 V 685800 H 0 Z"
         style="fill:none;stroke:#000000;stroke-width:9525;stroke-linecap:butt;stroke-linejoin:miter;stroke-miterlimit:8;stroke-dasharray:none;stroke-opacity:1"
         id="path1053" /></g><g
       id="g1055"
       transform="matrix(0.24,0,0,0.24,406.25,-437.76)"><text
         transform="matrix(1,0,0,-1,0,3249)"
         style="font-variant:normal;font-weight:normal;font-size:45.8333px;font-family:Calibri;-inkscape-font-specification:Calibri;writing-mode:lr-tb;fill:#000000;fill-opacity:1;fill-rule:nonzero;stroke:none"
         id="text1059"><tspan
           x="0 29.686249 53.64333 68.754578 79.190826 96.914574 118.80916 133.92041 144.35666 162.0804 176.13748 196.97791 207.41415 231.37123 252.71582 263.15207 273.58832 297.54541 316.82748 327.26373 351.22079 368.94455 379.3808 403.33789"
           y="0"
           sodipodi:role="line"
           id="tspan1057">Not satisfying inclusion</tspan></text></g><g
       id="g1061"
       transform="matrix(0.24,0,0,0.24,399,-450.72)"><text
         transform="matrix(1,0,0,-1,0,3249)"
         style="font-variant:normal;font-weight:normal;font-size:45.8333px;font-family:Calibri;-inkscape-font-specification:Calibri;writing-mode:lr-tb;fill:#000000;fill-opacity:1;fill-rule:nonzero;stroke:none"
         id="text1065"><tspan
           x="0 19.272915 35.429165 45.856247 60.958328 83.897911 100.05416 110.48124 132.36665 142.79375 156.84166 174.55624 197.49582 220.43539"
           y="0"
           sodipodi:role="line"
           id="tspan1063">criteria (see </tspan></text></g><g
       id="g1067"
       transform="matrix(0.24,0,0,0.24,454.375,-450.72)"><text
         transform="matrix(1,0,0,-1,0,3249)"
         style="font-variant:normal;font-weight:normal;font-size:45.8333px;font-family:Calibri;-inkscape-font-specification:Calibri;writing-mode:lr-tb;fill:#000000;fill-opacity:1;fill-rule:nonzero;stroke:none"
         id="text1071"><tspan
           x="0 20.831249 44.779163 68.727081 92.674995 104.15624 114.58333 126.06458 150.01248 164.06041 188.00832 198.43541 219.26665 242.7104"
           y="0"
           sodipodi:role="line"
           id="tspan1069">Supp. Info S2)</tspan></text></g><g
       id="g1073"
       transform="matrix(0.24,0,0,0.24,440.375,-464.88)"><text
         transform="matrix(1,0,0,-1,0,3249)"
         style="font-variant:normal;font-weight:normal;font-size:45.8333px;font-family:Calibri;-inkscape-font-specification:Calibri;writing-mode:lr-tb;fill:#000000;fill-opacity:1;fill-rule:nonzero;stroke:none"
         id="text1077"><tspan
           x="0 14.061666 38.023331 48.418331 71.325829 81.720825 105.17833 128.63582"
           y="0"
           sodipodi:role="line"
           id="tspan1075">(n = 62)</tspan></text></g><path
       d="m 206.375,195.3694 h 135 v -54 h -135 z"
       style="fill:#ffffff;fill-opacity:1;fill-rule:nonzero;stroke:none"
       id="path1079" /><g
       id="g1081"
       transform="matrix(7.874016e-5,0,0,-7.874016e-5,206.375,195.3694)"><path
         d="M 0,0 H 1714500 V 685800 H 0 Z"
         style="fill:none;stroke:#000000;stroke-width:9525;stroke-linecap:butt;stroke-linejoin:miter;stroke-miterlimit:8;stroke-dasharray:none;stroke-opacity:1"
         id="path1083" /></g><g
       id="g1085"
       transform="matrix(0.24,0,0,0.24,232.0024,-601.68)"><text
         transform="matrix(1,0,0,-1,0,3249)"
         style="font-variant:normal;font-weight:normal;font-size:45.8333px;font-family:Calibri;-inkscape-font-specification:Calibri;writing-mode:lr-tb;fill:#000000;fill-opacity:1;fill-rule:nonzero;stroke:none"
         id="text1089"><tspan
           x="0 20.831249 35.933331 59.881245 83.829163 94.256241 117.19582 134.9104 145.33749 155.76457 179.71249 198.9854 209.41249 233.3604 257.30832 280.24789 304.1958 314.62289 325.04999 348.99789"
           y="0"
           sodipodi:role="line"
           id="tspan1087">Studies included in </tspan></text></g><g
       id="g1091"
       transform="matrix(0.24,0,0,0.24,228.5624,-614.64)"><text
         transform="matrix(1,0,0,-1,0,3249)"
         style="font-variant:normal;font-weight:normal;font-size:45.8333px;font-family:Calibri;-inkscape-font-specification:Calibri;writing-mode:lr-tb;fill:#000000;fill-opacity:1;fill-rule:nonzero;stroke:none"
         id="text1095"><tspan
           x="0 23.957081 47.914162 69.808746 80.244995 90.681244 105.7925 127.68707 142.79832 153.23457 174.07498 196.97791 207.41415 225.13789 245.97832 269.93539 285.04663 309.00372 331.90665 349.6304 360.06665"
           y="0"
           sodipodi:role="line"
           id="tspan1093">qualitative synthesis</tspan></text></g><g
       id="g1097"
       transform="matrix(0.24,0,0,0.24,256.7524,-628.56)"><text
         transform="matrix(1,0,0,-1,0,3249)"
         style="font-variant:normal;font-weight:normal;font-size:45.8333px;font-family:Calibri;-inkscape-font-specification:Calibri;writing-mode:lr-tb;fill:#000000;fill-opacity:1;fill-rule:nonzero;stroke:none"
         id="text1101"><tspan
           x="0 14.061666 38.023331 48.418331 71.325829 81.720825 105.17833 128.63582"
           y="0"
           sodipodi:role="line"
           id="tspan1099">(n = 17)</tspan></text></g><path
       d="m 273.375,467.125 10e-5,-31 h -0.75 l -10e-5,31 z m 2.6251,-30 -3,-6 -3,6 z"
       style="fill:#000000;fill-opacity:1;fill-rule:nonzero;stroke:none"
       id="path1103" /><path
       d="m 274.2499,386.125 10e-5,-22 h -0.75 l -10e-5,22 z m 2.6251,-21 -3,-6 -3,6 z"
       style="fill:#000000;fill-opacity:1;fill-rule:nonzero;stroke:none"
       id="path1105" /><path
       d="m 274.2499,305.125 10e-5,-22 h -0.75 l -10e-5,22 z m 2.6251,-21 -3,-6 -3,6 z"
       style="fill:#000000;fill-opacity:1;fill-rule:nonzero;stroke:none"
       id="path1107" /><path
       d="m 338.75,409 46.25,-10e-5 v -0.75 l -46.25,10e-5 z m 45.25,2.6249 6,-3 -6,-3 z"
       style="fill:#000000;fill-opacity:1;fill-rule:nonzero;stroke:none"
       id="path1109" /><path
       d="m 340.5,332.5 44.5,-10e-5 v -0.75 l -44.5,10e-5 z m 43.5,2.6249 6,-3 -6,-3 z"
       style="fill:#000000;fill-opacity:1;fill-rule:nonzero;stroke:none"
       id="path1111" /><path
       d="m 206.375,278.2825 h 135 v -54 h -135 z"
       style="fill:#ffffff;fill-opacity:1;fill-rule:nonzero;stroke:none"
       id="path1113" /><g
       id="g1115"
       transform="matrix(7.874016e-5,0,0,-7.874016e-5,206.375,278.2825)"><path
         d="M 0,0 H 1714500 V 685800 H 0 Z"
         style="fill:none;stroke:#000000;stroke-width:9525;stroke-linecap:butt;stroke-linejoin:miter;stroke-miterlimit:8;stroke-dasharray:none;stroke-opacity:1"
         id="path1117" /></g><g
       id="g1119"
       transform="matrix(0.24,0,0,0.24,217.4999,-518.64)"><text
         transform="matrix(1,0,0,-1,0,3249)"
         style="font-variant:normal;font-weight:normal;font-size:45.8333px;font-family:Calibri;-inkscape-font-specification:Calibri;writing-mode:lr-tb;fill:#000000;fill-opacity:1;fill-rule:nonzero;stroke:none"
         id="text1123"><tspan
           x="0 20.831249 44.779163 55.206245"
           y="0"
           sodipodi:role="line"
           id="tspan1121">Full</tspan></text></g><g
       id="g1125"
       transform="matrix(0.24,0,0,0.24,233.2499,-518.64)"><text
         transform="matrix(1,0,0,-1,0,3249)"
         style="font-variant:normal;font-weight:normal;font-size:45.8333px;font-family:Calibri;-inkscape-font-specification:Calibri;writing-mode:lr-tb;fill:#000000;fill-opacity:1;fill-rule:nonzero;stroke:none"
         id="text1129"><tspan
           x="0"
           y="0"
           id="tspan1127">-</tspan></text></g><g
       id="g1131"
       transform="matrix(0.24,0,0,0.24,236.6249,-518.64)"><text
         transform="matrix(1,0,0,-1,0,3249)"
         style="font-variant:normal;font-weight:normal;font-size:45.8333px;font-family:Calibri;-inkscape-font-specification:Calibri;writing-mode:lr-tb;fill:#000000;fill-opacity:1;fill-rule:nonzero;stroke:none"
         id="text1135"><tspan
           x="0 15.102082 38.041664 57.818745 72.92083 83.347908 105.23332 121.38957 136.49165 146.91875 166.19165 176.61874 199.55832 217.2729 227.69998 249.5854 267.29999 285.01456 307.95413 325.66873 343.3833 366.32288 390.27081"
           y="0"
           sodipodi:role="line"
           id="tspan1133">text articles assessed </tspan></text></g><g
       id="g1137"
       transform="matrix(0.24,0,0,0.24,228.3099,-531.6)"><text
         transform="matrix(1,0,0,-1,0,3249)"
         style="font-variant:normal;font-weight:normal;font-size:45.8333px;font-family:Calibri;-inkscape-font-specification:Calibri;writing-mode:lr-tb;fill:#000000;fill-opacity:1;fill-rule:nonzero;stroke:none"
         id="text1141"><tspan
           x="0 14.061666 38.023331 54.147495 64.542496 87.449997 107.24082 126.52749 136.92249 160.88416 178.61249 189.00749 212.96915 236.93082 247.32582 266.61249 282.73663 293.13165 308.24747 331.15497 347.27914 357.67413"
           y="0"
           sodipodi:role="line"
           id="tspan1139">for exclusion criteria</tspan></text></g><g
       id="g1143"
       transform="matrix(0.24,0,0,0.24,256.7499,-545.76)"><text
         transform="matrix(1,0,0,-1,0,3249)"
         style="font-variant:normal;font-weight:normal;font-size:45.8333px;font-family:Calibri;-inkscape-font-specification:Calibri;writing-mode:lr-tb;fill:#000000;fill-opacity:1;fill-rule:nonzero;stroke:none"
         id="text1147"><tspan
           x="0 14.061666 38.023331 48.418331 71.325829 81.720825 105.17833 128.63582"
           y="0"
           sodipodi:role="line"
           id="tspan1145">(n = 30)</tspan></text></g><path
       d="m 390,278.2825 h 135 v -54 H 390 Z"
       style="fill:#ffffff;fill-opacity:1;fill-rule:nonzero;stroke:none"
       id="path1149" /><g
       id="g1151"
       transform="matrix(7.874016e-5,0,0,-7.874016e-5,390,278.2825)"><path
         d="M 0,0 H 1714500 V 685800 H 0 Z"
         style="fill:none;stroke:#000000;stroke-width:9525;stroke-linecap:butt;stroke-linejoin:miter;stroke-miterlimit:8;stroke-dasharray:none;stroke-opacity:1"
         id="path1153" /></g><g
       id="g1155"
       transform="matrix(0.24,0,0,0.24,413.75,-518.64)"><text
         transform="matrix(1,0,0,-1,0,3249)"
         style="font-variant:normal;font-weight:normal;font-size:45.8333px;font-family:Calibri;-inkscape-font-specification:Calibri;writing-mode:lr-tb;fill:#000000;fill-opacity:1;fill-rule:nonzero;stroke:none"
         id="text1159"><tspan
           x="0 22.394165 42.175831 61.453327 71.884995 95.837494 119.78999 142.68832 166.64082 177.07249 201.02498 221.86082 232.29248 251.56998 267.7308 278.16248 293.26913 316.16748 332.32831 342.75998 364.64996"
           y="0"
           sodipodi:role="line"
           id="tspan1157">Excluded by criteria </tspan></text></g><g
       id="g1161"
       transform="matrix(0.24,0,0,0.24,416.125,-531.6)"><text
         transform="matrix(1,0,0,-1,0,3249)"
         style="font-variant:normal;font-weight:normal;font-size:45.8333px;font-family:Calibri;-inkscape-font-specification:Calibri;writing-mode:lr-tb;fill:#000000;fill-opacity:1;fill-rule:nonzero;stroke:none"
         id="text1165"><tspan
           x="0 14.061666 31.789997 54.697495 77.604996"
           y="0"
           sodipodi:role="line"
           id="tspan1163">(see </tspan></text></g><g
       id="g1167"
       transform="matrix(0.24,0,0,0.24,437.25,-531.6)"><text
         transform="matrix(1,0,0,-1,0,3249)"
         style="font-variant:normal;font-weight:normal;font-size:45.8333px;font-family:Calibri;-inkscape-font-specification:Calibri;writing-mode:lr-tb;fill:#000000;fill-opacity:1;fill-rule:nonzero;stroke:none"
         id="text1171"><tspan
           x="0 20.831249 44.779163 68.727081 92.674995 104.15624 114.58333 126.06458 150.01248 164.06041 188.00832 198.43541 219.26665 242.7104"
           y="0"
           sodipodi:role="line"
           id="tspan1169">Supp. Info S2)</tspan></text></g><g
       id="g1173"
       transform="matrix(0.24,0,0,0.24,440.375,-545.76)"><text
         transform="matrix(1,0,0,-1,0,3249)"
         style="font-variant:normal;font-weight:normal;font-size:45.8333px;font-family:Calibri;-inkscape-font-specification:Calibri;writing-mode:lr-tb;fill:#000000;fill-opacity:1;fill-rule:nonzero;stroke:none"
         id="text1177"><tspan
           x="0 14.061666 38.023331 48.418331 71.325829 81.720825 105.17833 128.63582"
           y="0"
           sodipodi:role="line"
           id="tspan1175">(n = 13)</tspan></text></g><path
       d="m 274.2499,224.2825 10e-5,-22 h -0.75 l -10e-5,22 z m 2.6251,-21 -3,-6 -3,6 z"
       style="fill:#000000;fill-opacity:1;fill-rule:nonzero;stroke:none"
       id="path1179" /><path
       d="m 342.25,251.6575 h 44.5 v -0.75 h -44.5 z m 43.5,2.625 6,-3 -6,-3 z"
       style="fill:#000000;fill-opacity:1;fill-rule:nonzero;stroke:none"
       id="path1181" /></g></svg>
